<?xml version="1.0" encoding="UTF-8" standalone="no"?>
<!-- Created with Inkscape (http://www.inkscape.org/) -->

<svg
        version="1.1"
        id="svg159"
        xml:space="preserve"
        width="70px"
        height="70px"
        viewBox="0 0 682.66669 682.66669"
        xmlns="http://www.w3.org/2000/svg"><defs
     id="defs163"><clipPath
       clipPathUnits="userSpaceOnUse"
       id="clipPath173"><path
         d="M 0,512 H 512 V 0 H 0 Z"
         id="path171" /></clipPath></defs>
    <g
            id="g165"
            transform="matrix(1.3333333,0,0,-1.3333333,0,682.66667)"><g
       id="g167"><g
         id="g169"
         clip-path="url(#clipPath173)"><g
           id="g175"
           transform="translate(501.8691,86.6978)"><path
             d="M 0,0 -33.223,33.222"
             style="fill:none;stroke:#000000;stroke-width:15;stroke-linecap:round;stroke-linejoin:round;stroke-miterlimit:10;stroke-dasharray:none;stroke-opacity:1"
             id="path177" /></g><g
            id="g179"
            transform="translate(364.9429,65.5605)"><path
             d="M 0,0 58.061,-58.061"
             style="fill:none;stroke:#000000;stroke-width:15;stroke-linecap:round;stroke-linejoin:round;stroke-miterlimit:10;stroke-dasharray:none;stroke-opacity:1"
             id="path181" /></g><g
            id="g183"
            transform="translate(314.5923,301.1562)"><path
             d="m 0,0 -21.38,58.597 c -3.439,9.425 -8.897,17.986 -15.992,25.08 l -36.15,36.15 c -10.159,10.159 -26.63,10.159 -36.789,0 v 0 c -6.245,-6.245 -8.65,-14.873 -7.219,-22.953"
             style="fill:none;stroke:#000000;stroke-width:15;stroke-linecap:round;stroke-linejoin:round;stroke-miterlimit:10;stroke-dasharray:none;stroke-opacity:1"
             id="path185" /></g><g
            id="g187"
            transform="translate(443.2427,145.3242)"><path
             d="M 0,0 -30.678,30.678"
             style="fill:none;stroke:#000000;stroke-width:15;stroke-linecap:round;stroke-linejoin:round;stroke-miterlimit:10;stroke-dasharray:none;stroke-opacity:1"
             id="path189" /></g><g
            id="g191"
            transform="translate(198.4136,192.8569)"><path
             d="M 0,0 V -12.617"
             style="fill:none;stroke:#000000;stroke-width:15;stroke-linecap:round;stroke-linejoin:round;stroke-miterlimit:10;stroke-dasharray:none;stroke-opacity:1"
             id="path193" /></g><g
            id="g195"
            transform="translate(10.1309,420.3726)"><path
             d="M 0,0 51.942,-51.942"
             style="fill:none;stroke:#000000;stroke-width:15;stroke-linecap:round;stroke-linejoin:round;stroke-miterlimit:10;stroke-dasharray:none;stroke-opacity:1"
             id="path197" /></g><g
            id="g199"
            transform="translate(198.4136,144.313)"><path
             d="m 0,0 v -10.115 c 0,-11.843 9.209,-21.929 21.044,-22.349 12.425,-0.442 22.636,9.499 22.636,21.825 v -23.474 c 0,-12.062 9.778,-21.84 21.84,-21.84 12.062,0 21.84,9.778 21.84,21.84 v -11.198 c 0,-11.842 9.208,-21.929 21.043,-22.349 12.426,-0.442 22.637,9.499 22.637,21.826 v -11.691 c 0,-12.062 9.778,-21.84 21.839,-21.84 12.062,0 21.841,9.778 21.841,21.84 V 71.121 L 211,34.774 c 10.045,-10.073 26.321,-10.204 36.528,-0.294 10.411,10.109 10.534,26.784 0.273,37.046 l -43.489,43.489 c -7.095,7.094 -15.654,12.552 -25.08,15.992 L 77.837,168.003 -104.155,360.187"
             style="fill:none;stroke:#000000;stroke-width:15;stroke-linecap:round;stroke-linejoin:round;stroke-miterlimit:10;stroke-dasharray:none;stroke-opacity:1"
             id="path201" /></g><g
            id="g203"
            transform="translate(146.9995,219.2324)"><path
             d="m 0,0 v 0 c 0,-12.062 9.778,-21.84 21.84,-21.84 h 26.663 c 12.062,0 21.84,9.778 21.84,21.84 0,12.062 -9.778,21.84 -21.84,21.84 H 21.84 C 9.778,21.84 0,12.062 0,0 Z"
             style="fill:none;stroke:#000000;stroke-width:15;stroke-linecap:round;stroke-linejoin:round;stroke-miterlimit:10;stroke-dasharray:none;stroke-opacity:1"
             id="path205" /></g><g
            id="g207"
            transform="translate(111.8188,262.9121)"><path
             d="m 0,0 v 0 c 0,-12.062 9.778,-21.84 21.84,-21.84 h 44.534 c 12.062,0 21.839,9.778 21.839,21.84 0,12.062 -9.777,21.84 -21.839,21.84 H 21.84 C 9.778,21.84 0,12.062 0,0 Z"
             style="fill:none;stroke:#000000;stroke-width:15;stroke-linecap:round;stroke-linejoin:round;stroke-miterlimit:10;stroke-dasharray:none;stroke-opacity:1"
             id="path209" /></g><g
            id="g211"
            transform="translate(85.8242,306.5923)"><path
             d="m 0,0 v 0 c 0,-12.062 9.778,-21.84 21.84,-21.84 h 45.048 c 12.061,0 21.84,9.778 21.84,21.84 0,12.062 -9.779,21.84 -21.84,21.84 H 21.84 C 9.778,21.84 0,12.062 0,0 Z"
             style="fill:none;stroke:#000000;stroke-width:15;stroke-linecap:round;stroke-linejoin:round;stroke-miterlimit:10;stroke-dasharray:none;stroke-opacity:1"
             id="path213" /></g><g
            id="g215"
            transform="translate(76.4077,372.0195)"><path
             d="m 0,0 c -11.139,-0.995 -19.872,-10.349 -19.872,-21.747 v -0.001 c 0,-12.061 9.778,-21.839 21.84,-21.839 h 34.323 c 12.062,0 21.84,9.778 21.84,21.839 v 0.001 c 0,12.061 -9.778,21.84 -21.84,21.84 h -0.364"
             style="fill:none;stroke:#000000;stroke-width:15;stroke-linecap:round;stroke-linejoin:round;stroke-miterlimit:10;stroke-dasharray:none;stroke-opacity:1"
             id="path217" /></g><g
            id="g219"
            transform="translate(242.0933,136.6743)"><path
             d="M 0,0 V 21.221"
             style="fill:none;stroke:#000000;stroke-width:15;stroke-linecap:round;stroke-linejoin:round;stroke-miterlimit:10;stroke-dasharray:none;stroke-opacity:1"
             id="path221" /></g><g
            id="g223"
            transform="translate(285.7734,113.2002)"><path
             d="M 0,0 V 33.848"
             style="fill:none;stroke:#000000;stroke-width:15;stroke-linecap:round;stroke-linejoin:round;stroke-miterlimit:10;stroke-dasharray:none;stroke-opacity:1"
             id="path225" /></g><g
            id="g227"
            transform="translate(329.4531,101.4785)"><path
             d="M 0,0 V 30.575"
             style="fill:none;stroke:#000000;stroke-width:15;stroke-linecap:round;stroke-linejoin:round;stroke-miterlimit:10;stroke-dasharray:none;stroke-opacity:1"
             id="path229" /></g></g></g></g></svg>
